<svg width="117" height="25" viewBox="0 0 117 25" fill="none" xmlns="http://www.w3.org/2000/svg">
<path fill-rule="evenodd" clip-rule="evenodd" d="M81.9229 15.7478C80.2289 15.3233 80.2289 15.3057 80.2289 14.4036C80.2289 13.796 80.2908 13.506 81.6861 13.506C82.6442 13.506 84.0541 13.6652 84.9612 13.819C85.0851 13.8367 85.2126 13.8102 85.3146 13.7306C85.4166 13.6599 85.4822 13.5449 85.4967 13.4211L85.7554 11.4003C85.7736 11.1704 85.6279 10.9581 85.3911 10.9051C84.3346 10.6698 82.8774 10.516 81.6752 10.516C77.4674 10.516 76.6113 12.0547 76.6113 14.3665C76.6113 16.9072 77.094 17.7624 80.3127 18.523C82.4329 19.0182 82.4329 19.3852 82.4329 19.9954C82.4329 20.7967 82.3601 21.0744 80.9757 21.0744C79.8573 21.0744 78.564 20.9063 77.4273 20.6109C77.2998 20.5809 77.1723 20.6003 77.063 20.664C76.9537 20.733 76.8754 20.8409 76.8517 20.9647L76.5038 22.8935C76.4619 23.1146 76.5949 23.3312 76.8135 23.4002C78.0558 23.7893 79.8372 24.0546 81.1451 24.0546C85.2144 24.0546 86.045 22.392 86.045 19.9158C86.045 17.1743 85.5459 16.6614 81.9174 15.7293L81.9229 15.747V15.7478ZM71.3707 15.7478C69.6767 15.3233 69.6767 15.3057 69.6767 14.4036C69.6767 13.796 69.7386 13.506 71.1339 13.506C72.0902 13.506 73.5019 13.6652 74.409 13.819C74.5329 13.8367 74.6604 13.8102 74.7624 13.7306C74.8644 13.6599 74.93 13.5449 74.9446 13.4211L75.2032 11.4003C75.2324 11.1704 75.0794 10.9581 74.848 10.9051C73.8098 10.6698 72.3525 10.516 71.1503 10.516C66.9535 10.516 66.0864 12.0547 66.0864 14.3665C66.0864 16.9072 66.5783 17.7624 69.7951 18.523C71.9154 19.0182 71.9154 19.3852 71.9154 19.9954C71.9154 20.7967 71.8425 21.0744 70.4581 21.0744C69.3379 21.0744 68.0446 20.9063 66.9061 20.6109C66.7786 20.5809 66.6511 20.6003 66.5418 20.664C66.4325 20.733 66.3542 20.8409 66.3305 20.9647L65.9662 22.8838C65.9298 23.1048 66.0573 23.3224 66.2813 23.3914C67.52 23.7805 69.3015 24.0458 70.6111 24.0458C74.6732 24.0458 75.5111 22.3832 75.5111 19.907C75.5111 17.1655 75.0047 16.6525 71.3762 15.7204L71.3707 15.7381V15.7478ZM34.0201 6.45673C33.96 6.26924 33.7833 6.1419 33.5793 6.1419H29.265C29.0646 6.1419 28.8824 6.26836 28.8223 6.45408L23.3787 23.203C23.3368 23.3357 23.3604 23.486 23.4479 23.601C23.5353 23.7159 23.6738 23.784 23.8213 23.784H26.7904C26.9962 23.784 27.1766 23.6514 27.2349 23.4657L30.9845 11.1377C30.9845 11.1377 31.0847 10.8281 31.4217 10.8281C31.7678 10.8281 31.8588 11.1465 31.8588 11.1465L33.5984 16.9921H31.2668C31.0665 16.9921 30.8843 17.1274 30.8297 17.3193L30.1557 19.6364C30.1193 19.769 30.1557 19.9194 30.2286 20.0255C30.3196 20.1378 30.4654 20.2024 30.6111 20.2024H34.5911L35.6385 23.4683C35.6968 23.654 35.8753 23.7814 36.0757 23.7814H39.0448C39.1905 23.7814 39.3326 23.7106 39.42 23.5957C39.5111 23.4789 39.5366 23.3304 39.4929 23.1942L34.0438 6.42666L34.0256 6.45496L34.0201 6.45673ZM90.761 10.7848H88.0287C87.7737 10.7848 87.5678 10.9855 87.5678 11.2332V23.3666C87.5678 23.6142 87.7755 23.8194 88.0305 23.8194H90.7628C91.0178 23.8194 91.2246 23.6187 91.2246 23.3684V11.2376C91.2246 10.99 91.0242 10.7928 90.7692 10.7928L90.7601 10.7857L90.761 10.7848ZM52.0169 5.81468H49.2846C49.0296 5.81468 48.8237 6.01543 48.8237 6.26305V23.3666C48.8237 23.6142 49.0314 23.8194 49.2864 23.8194H52.0187C52.2737 23.8194 52.4796 23.6187 52.4796 23.3684V6.26748C52.4796 6.01985 52.2792 5.82264 52.0242 5.82264L52.0169 5.81557V5.81468ZM113.439 10.5239C111.996 10.5239 110.024 11.0085 108.357 11.7691L108.157 11.1147C108.102 10.9201 107.92 10.7919 107.715 10.7919H105.693C105.438 10.7919 105.229 10.9926 105.229 11.2402V23.3737C105.229 23.6213 105.429 23.8247 105.684 23.8247H108.416C108.671 23.8247 108.881 23.6248 108.881 23.3737V14.9722C109.864 14.4859 111.249 13.9818 112.071 13.9818C112.687 13.9818 112.915 14.2064 112.915 14.8042V23.3648C112.915 23.616 113.124 23.8159 113.379 23.8159H116.111C116.366 23.8159 116.572 23.616 116.572 23.3648V14.4567C116.572 11.8522 115.516 10.5301 113.437 10.5301H113.436L113.439 10.5239ZM10.167 17.7377C10.0942 17.6669 9.99036 17.5917 9.81185 17.5917C9.58416 17.5917 9.45119 17.7438 9.40018 17.8181C8.1251 19.7107 7.46935 21.4971 7.37828 23.2923C7.37554 23.425 7.42655 23.5576 7.51944 23.6549C7.61052 23.761 7.74714 23.8141 7.88375 23.8141H10.9111C11.1753 23.8141 11.3939 23.6195 11.4121 23.3719C11.4849 22.5052 11.7582 21.6386 12.2682 20.7365C12.4412 20.4182 12.3046 20.1263 12.2044 19.9998C11.7035 19.3631 11.0906 18.691 10.1798 17.766L10.1762 17.7483L10.167 17.7377ZM60.8759 19.0288V20.5915C60.4297 20.8391 59.61 21.1752 58.6172 21.1752C57.7702 21.1752 57.5061 20.9275 57.5061 20.0962C57.5061 19.3003 57.67 19.0492 58.6719 19.0492H60.8759V19.0297V19.0288ZM99.6929 19.0288V20.5915C99.2375 20.8391 98.4178 21.1752 97.4342 21.1752C96.5872 21.1752 96.3231 20.9275 96.3231 20.0962C96.3231 19.3003 96.487 19.0492 97.4888 19.0492H99.6929V19.0297V19.0288ZM46.9685 21.2265C46.9503 21.0991 46.8774 20.9877 46.7681 20.9169C46.6588 20.8462 46.5295 20.825 46.402 20.855C45.9102 20.9718 45.4548 21.0354 45.0905 21.0354C44.4165 21.0354 44.1069 20.7524 44.1069 20.1157V13.6864H46.7572C47.0122 13.6864 47.2199 13.483 47.2199 13.2354V11.2279C47.2199 10.9802 47.0104 10.7768 46.7554 10.7768H44.1141V7.6913C44.1141 7.55864 44.0522 7.43749 43.9502 7.35082C43.85 7.26504 43.7134 7.22701 43.5859 7.2447L40.8536 7.61613C40.6241 7.64531 40.4529 7.83456 40.4529 8.05831V10.7821H38.9619C38.7069 10.7821 38.4993 10.9829 38.4993 11.2305V13.2469C38.4993 13.4945 38.7178 13.6997 38.9729 13.6997H40.4592V20.5358C40.4592 22.8855 41.7288 24.0732 44.2353 24.0732C44.9457 24.0732 46.1588 23.914 46.9494 23.6487C47.1588 23.578 47.2882 23.3719 47.2536 23.1535L46.9576 21.2344L46.9667 21.2212L46.9685 21.2265ZM59.0444 10.5301C57.66 10.5301 55.9769 10.7423 54.7547 11.0696C54.5179 11.1315 54.3721 11.3481 54.4086 11.5736L54.7237 13.5016C54.7419 13.6192 54.8148 13.7253 54.915 13.7961C55.017 13.8668 55.1445 13.8845 55.2683 13.8668C56.4031 13.6546 57.5762 13.5307 58.569 13.5307C60.5362 13.5307 60.8532 13.9375 60.8532 15.2287V16.3607H57.9387C55.1445 16.3607 53.9495 17.475 53.9495 20.1104C53.9495 22.622 55.261 24.0546 57.538 24.0546C58.8622 24.0546 60.1847 23.7009 61.2958 23.0465L61.4142 23.4586C61.4688 23.6531 61.651 23.7858 61.8605 23.7858H64.0791C64.3341 23.7858 64.54 23.5824 64.54 23.3348V15.2694C64.54 11.8027 63.0554 10.5115 59.0571 10.5115L59.0407 10.5204L59.0444 10.5301ZM97.855 10.5301C96.4706 10.5301 94.7948 10.7423 93.5744 11.0696C93.3467 11.1315 93.2009 11.3481 93.2419 11.5736L93.5607 13.5016C93.5789 13.6192 93.6518 13.7253 93.752 13.7961C93.8558 13.8668 93.9833 13.8845 94.1072 13.8668C95.2365 13.6546 96.4023 13.5307 97.4041 13.5307C99.3714 13.5307 99.6811 13.9375 99.6811 15.2287V16.3607H96.7666C93.9614 16.3607 92.7665 17.475 92.7665 20.1104C92.7665 22.622 94.0753 24.0546 96.3549 24.0546C97.6783 24.0546 98.9962 23.7009 100.107 23.0465L100.226 23.4586C100.28 23.6531 100.463 23.7858 100.672 23.7858H102.876C103.131 23.7858 103.341 23.5824 103.341 23.3348V15.2694C103.341 11.8027 101.856 10.5115 97.8577 10.5115L97.8623 10.5204L97.855 10.5301ZM22.4497 5.89604C22.3586 5.82972 22.2539 5.79611 22.1464 5.79611C22.0735 5.79611 22.0189 5.80672 21.9642 5.82795C20.8713 6.22945 19.7784 6.53544 18.7766 6.76006C18.5762 6.81313 18.3977 6.95462 18.3394 7.1315C17.6108 9.07709 15.7346 10.9343 13.7855 12.8622C13.7127 12.9329 13.6034 13.039 13.4212 13.039C13.2391 13.039 13.1298 12.9506 13.0569 12.8745C11.0897 10.9378 9.23169 9.09832 8.50307 7.15272C8.43021 6.97585 8.26628 6.83435 8.06591 6.78129C7.06406 6.55135 5.95292 6.24183 4.87821 5.84387C4.82357 5.82618 4.75435 5.81733 4.69606 5.81733C4.58677 5.81733 4.48112 5.85271 4.39186 5.91727C4.25343 6.01455 4.18239 6.18258 4.19878 6.34176C4.36272 7.95661 5.02758 9.53431 6.21158 11.1881C7.33183 12.7445 8.77995 14.1861 10.1916 15.578C12.7782 18.1427 15.2282 20.5658 15.445 23.3781C15.4632 23.6293 15.6818 23.8256 15.9404 23.8256H18.9824C19.119 23.8256 19.252 23.7725 19.3467 23.6753C19.4414 23.578 19.4924 23.4489 19.4833 23.3162C19.3868 21.4387 18.6581 19.5577 17.2556 17.5652C16.9641 17.1496 16.6545 16.7427 16.3238 16.3448C16.1909 16.1856 16.2473 15.9822 16.3493 15.8831L16.659 15.5789C18.068 14.1905 19.5188 12.749 20.6391 11.1925C21.8231 9.54315 22.4788 7.97341 22.6473 6.35945C22.6655 6.19584 22.589 6.02339 22.4542 5.92346L22.4633 5.91019L22.4497 5.89604ZM13.4331 7.3464C14.3866 7.3464 14.9404 7.28714 15.1335 7.28714C15.3521 7.28714 15.5889 7.46402 15.5889 7.72933C15.5889 7.80007 15.5706 7.85314 15.5524 7.9062C15.4249 8.23164 14.842 9.41315 13.7673 10.4266C13.6398 10.5398 13.5123 10.5611 13.4212 10.5611C13.3302 10.5611 13.1844 10.5398 13.0624 10.4266C11.9877 9.41315 11.4121 8.23341 11.2864 7.90266C11.2682 7.8496 11.25 7.79654 11.25 7.71694C11.25 7.46048 11.474 7.26592 11.709 7.26592C11.9039 7.26592 12.4558 7.31898 13.4103 7.31898H13.4139L13.4322 7.33667L13.4331 7.3464ZM90.7592 5.8191H88.0342C87.7791 5.8191 87.5715 6.01366 87.5715 6.26128V8.596C87.5715 8.84362 87.7791 9.04526 88.0342 9.04526H90.7665C91.0215 9.04526 91.2282 8.8507 91.2282 8.60308V6.24979C91.2282 6.00217 91.0215 5.80318 90.7665 5.80318L90.7592 5.82441V5.8191ZM26.7394 0.24939C26.6183 0.0902049 26.4297 0.00176872 26.2294 0.00176872C26.1265 0.00176872 26.0244 0.0229934 25.9379 0.0725177C22.2038 2.05349 17.8804 3.10234 13.4285 3.10411C8.9785 3.10411 4.65416 2.05349 0.923655 0.070749C0.832578 0.0176872 0.732393 3.26815e-09 0.632209 3.26815e-09C0.43184 3.26815e-09 0.240578 0.0884362 0.122178 0.247621C-0.054511 0.459868 -0.0599757 0.848988 0.240578 1.07892C2.10765 2.42315 4.16781 3.48439 6.36095 4.20956C8.63787 4.95243 11.0132 5.34155 13.4285 5.34155C15.8457 5.34155 18.2228 4.95243 20.4961 4.20956C22.691 3.48439 24.7512 2.42315 26.6219 1.07892C26.9225 0.848988 26.9134 0.459868 26.7403 0.229934V0.24939H26.7394Z" fill="#D6DAE5"/>
</svg>
