<svg width="117" height="23" viewBox="0 0 117 23" fill="none" xmlns="http://www.w3.org/2000/svg">
<path fill-rule="evenodd" clip-rule="evenodd" d="M115.15 19.5391C115.945 19.5391 116.579 20.167 116.579 20.9541C116.579 21.75 115.945 22.3691 115.143 22.3691C114.349 22.3691 113.704 21.75 113.704 20.9541C113.704 20.167 114.349 19.5391 115.143 19.5391H115.15ZM23.2101 22.1798H19.2756L19.108 21.2158C17.3102 22.1798 15.7072 22.3372 14.6507 22.3372C11.7636 22.3372 10.228 20.4694 10.228 17.8836C10.228 14.8343 12.0204 13.7448 15.2263 13.7448H18.4869V13.0868C18.4869 11.5303 18.3047 11.074 15.8274 11.074H11.8037L12.1989 7.25354H16.6125C22.0261 7.25354 23.2138 8.91614 23.2138 13.1186V22.1798H23.2101ZM81.8272 16.1891C81.8272 19.3021 80.503 22.3213 74.96 22.3213C69.4116 22.3213 68.0619 19.3021 68.0619 16.1891V13.1823C68.0619 10.0693 69.4098 7.05013 74.9582 7.05013C80.5139 7.05013 81.8436 10.0693 81.8436 13.1841V16.1909L81.8272 16.1891ZM96.9423 16.1891C96.9423 19.3021 95.6163 22.3213 90.0751 22.3213C84.5249 22.3213 83.1752 19.3021 83.1752 16.1891V13.1823C83.1752 10.0693 84.5231 7.05013 90.0733 7.05013C95.6108 7.05013 96.9405 10.0693 96.9405 13.1841V16.1909L96.9423 16.1891ZM115.143 19.762C114.506 19.762 113.977 20.2926 113.977 20.9523C113.977 21.6244 114.506 22.1515 115.15 22.1515C115.797 22.1692 116.316 21.6386 116.316 20.9665C116.316 20.312 115.797 19.7779 115.15 19.7779H115.143V19.762ZM7.07859 22.1497H2.3608V11.0775H9.15527e-05V7.25707H2.35898V4.96658C2.35898 1.85362 3.68871 -2.61452e-08 7.47386 -2.61452e-08H10.6251V3.82044H8.65786C7.18242 3.82044 7.08405 4.35106 7.08405 5.34862L7.06584 7.25884H10.6361L10.2171 11.0793H7.06766V22.1515L7.07859 22.1497ZM114.872 21.7783H114.613V20.1988C114.759 20.1811 114.886 20.1635 115.087 20.1635C115.336 20.1635 115.498 20.2112 115.597 20.2802C115.695 20.3509 115.742 20.4571 115.742 20.6074C115.742 20.8143 115.604 20.9399 115.433 20.9912V21.0036C115.571 21.0284 115.67 21.1522 115.706 21.3856C115.742 21.6297 115.779 21.7252 115.804 21.7748H115.531C115.495 21.7252 115.453 21.5802 115.422 21.375C115.385 21.1716 115.276 21.0973 115.072 21.0973H114.89V21.7765L114.872 21.7783ZM114.872 20.9028H115.059C115.272 20.9028 115.453 20.8267 115.453 20.6322C115.453 20.4942 115.351 20.3562 115.059 20.3562C114.976 20.3562 114.914 20.3615 114.872 20.3686V20.9028ZM14.9476 17.8252C14.9476 18.66 15.3557 19.0934 16.2519 19.0934C17.2173 19.0934 17.7856 18.7892 18.4887 18.4743V16.8029H16.383C15.3848 16.8029 14.9476 16.9797 14.9476 17.8234V17.8252ZM60.0161 10.8635C59.0507 10.8635 58.3585 11.1642 57.6554 11.4826V18.5221C58.3294 18.584 58.7155 18.584 59.3567 18.584C61.6701 18.584 61.9834 17.5581 61.9834 16.1255V12.7578C61.9834 11.7036 61.6191 10.8529 60.0161 10.8529V10.8635ZM74.9436 10.8635C73.337 10.8635 72.7815 11.7125 72.7815 12.756V16.6119C72.7815 17.6731 73.337 18.5221 74.9436 18.5221C76.5466 18.5221 77.104 17.6731 77.104 16.6119V12.756C77.104 11.7019 76.5393 10.8511 74.9363 10.8511L74.9436 10.8635ZM36.5875 11.3411C34.1394 10.9342 33.4362 10.8458 32.2595 10.8458C30.1429 10.8458 29.5035 11.2933 29.5035 13.039V16.3289C29.5035 18.0711 30.1411 18.5221 32.2595 18.5221C33.4381 18.5221 34.1394 18.4336 36.5875 18.0268V21.7482C34.4436 22.2169 33.0464 22.339 31.8661 22.339C26.7986 22.339 24.7839 19.7566 24.7839 16.0246V13.3539C24.7839 9.61478 26.7986 7.02714 31.8661 7.02714C33.0464 7.02714 34.4436 7.15095 36.5875 7.61966V11.3411ZM51.3602 16.0282H42.7042V16.3289C42.7042 18.0711 43.3418 18.5221 45.4584 18.5221C47.3619 18.5221 48.5186 18.4336 50.9631 18.0268V21.7482C48.6078 22.2169 47.3801 22.339 45.0668 22.339C40.0029 22.339 37.9992 19.7566 37.9992 16.0246V12.9647C37.9992 9.69791 39.4929 7.02183 44.6842 7.02183C49.8847 7.02183 51.3693 9.66608 51.3693 12.9647V16.0246L51.3602 16.0282ZM90.0569 10.8635C88.454 10.8635 87.8984 11.7125 87.8984 12.7613V16.6225C87.8984 17.6837 88.454 18.5327 90.0569 18.5327C91.6599 18.5327 92.2246 17.6837 92.2246 16.6225V12.7596C92.2246 11.7036 91.6599 10.8529 90.0569 10.8529V10.8635ZM112.456 22.148H107.343L103.015 15.1438V22.148H98.2976V1.14083L103.015 0.380276V13.9022L107.342 7.25177H112.442L107.715 14.5035L112.438 22.1444L112.456 22.148ZM44.6715 10.4744C43.0685 10.4744 42.7042 11.3234 42.7042 12.3846V12.9736H46.6387V12.3793C46.6387 11.3358 46.2744 10.4797 44.6715 10.4797V10.4744ZM66.7048 16.0989C66.7048 19.7071 65.6301 22.3425 59.1819 22.3425C56.8576 22.3425 55.4914 22.1409 52.9231 21.7588V1.13729L57.6408 0.376738V7.58783C58.6609 7.21993 59.9815 7.03421 61.1837 7.03421C65.9015 7.03421 66.6848 9.08593 66.6848 12.3811V16.1131L66.7048 16.0989Z" fill="#D6DAE5"/>
</svg>
